<svg xmlns="http://www.w3.org/2000/svg" version="1.1" xmlns:xlink="http://www.w3.org/1999/xlink" xmlns:svgjs="http://svgjs.com/svgjs" width="64" height="64"><svg xmlns="http://www.w3.org/2000/svg" xmlns:xlink="http://www.w3.org/1999/xlink" width="64" height="64" viewBox="0 0 64 64">
  <defs>
    <clipPath id="SvgjsClipPath1005">
      <rect width="64" height="64"></rect>
    </clipPath>
  </defs>
  <g id="SvgjsG1004" clip-path="url(#clip-logo)">
    <path id="SvgjsPath1003" d="M21,0H43A21,21,0,0,1,64,21V43A21,21,0,0,1,43,64H21A21,21,0,0,1,0,43V21A21,21,0,0,1,21,0Z" fill="#2563eb"></path>
    <g id="SvgjsG1002" transform="translate(-3.1 9.013)">
      <path id="SvgjsPath1001" data-name="Path 30" d="M49.922,97.533a6.139,6.139,0,0,1-2.137,3.6v16.455a1.474,1.474,0,0,1-.45,1.063,1.536,1.536,0,0,1-1.083.441H19.436a1.538,1.538,0,0,1-1.082-.441,1.472,1.472,0,0,1-.449-1.063v-26.3a1.475,1.475,0,0,1,.449-1.064,1.537,1.537,0,0,1,1.082-.441H33.678a35.891,35.891,0,0,1,4.015-4.481l.02-.025H19.436A6.182,6.182,0,0,0,15.1,87.041a5.945,5.945,0,0,0-1.8,4.251v26.3a5.94,5.94,0,0,0,1.8,4.251,6.189,6.189,0,0,0,4.332,1.759H46.252a6.19,6.19,0,0,0,4.335-1.759,5.95,5.95,0,0,0,1.794-4.251V95.894a.191.191,0,0,0-.029-.028A14,14,0,0,1,49.922,97.533Z" transform="translate(0 -77.624)" fill="#fff"></path>
      <path id="SvgjsPath1000" data-name="Path 31" d="M162.635,0s-1.409,2.1-10.61,5.218c-9.382,3.175-15.157,16.091-15.157,16.091-1.39,2.646-6.886,13.64-6.886,13.64-1.514,2.84,1.26,4.518,2.887,1.585,3.119-5.629,5.132-10.772,9.874-10.918,6.918-.213,11.649-6.255,10.161-5.974-1.959.853-6.277.065-3.733-.328,6.106-.49,9.869-5.079,8.643-5.39a5.873,5.873,0,0,1-4.579-.2C164.012,12.417,162.635,0,162.635,0Z" transform="translate(-105.8 0)" fill="#fff"></path>
    </g>
  </g>
</svg><style>@media (prefers-color-scheme: light) { :root { filter: none; } }
</style></svg>